<svg xmlns="http://www.w3.org/2000/svg" width="14.358" height="9.151" viewBox="0 0 14.358 9.151">
  <g id="Group_370" data-name="Group 370" transform="translate(-910.749 -439.737)">
    <path id="Path_3778" data-name="Path 3778" d="M910.749,532.229a.641.641,0,0,1,.666-.429q6.508,0,13.017,0a.633.633,0,0,1,.59.279.555.555,0,0,1,.086.306c0,1.107,0,2.214,0,3.321a.586.586,0,0,1-.6.589c-.189.009-.189.009-.125.187s.13.36.192.541a.335.335,0,0,1-.192.46.329.329,0,0,1-.43-.229c-.1-.266-.2-.534-.283-.806a.2.2,0,0,0-.222-.155q-5.521,0-11.041,0a.2.2,0,0,0-.221.16c-.085.262-.179.521-.274.779-.083.225-.257.32-.443.249a.341.341,0,0,1-.181-.476c.068-.194.136-.388.207-.58.03-.082.031-.134-.081-.13a.641.641,0,0,1-.66-.422Z" transform="translate(0 -88.616)" fill="#f99d3c"/>
    <path id="Path_3779" data-name="Path 3779" d="M950.81,439.738q2.171,0,4.342,0a1.5,1.5,0,0,1,1.536,1.295,1.441,1.441,0,0,1,.014.237c0,.388,0,.775,0,1.162,0,.117-.042.154-.155.153-.213,0-.213,0-.226-.213a1.336,1.336,0,0,0-1.152-1.193c-.163-.016-.326-.022-.489-.022-.85,0-1.7.007-2.549,0a1.457,1.457,0,0,0-1.259.541c-.048.062-.083.058-.13,0a1.447,1.447,0,0,0-1.246-.539c-.92.007-1.839,0-2.759,0a1.4,1.4,0,0,0-1.086.428,1.287,1.287,0,0,0-.359.83c-.009.168-.016.164-.226.171-.147,0-.154-.073-.153-.183,0-.388,0-.775,0-1.163a1.5,1.5,0,0,1,1.5-1.5C947.878,439.735,949.344,439.739,950.81,439.738Z" transform="translate(-32.886)" fill="#f99d3c"/>
    <path id="Path_3780" data-name="Path 3780" d="M1115.149,494.559h-2.073c-.2,0-.205-.012-.173-.2a.731.731,0,0,1,.738-.622q1.512-.012,3.025,0a.741.741,0,0,1,.739.622c.023.172,0,.2-.169.2Z" transform="translate(-194.572 -51.975)" fill="#f99d3c"/>
    <path id="Path_3781" data-name="Path 3781" d="M973.27,494.558h-2.087c-.178,0-.2-.029-.173-.207a.741.741,0,0,1,.733-.612q1.512-.011,3.025,0a.734.734,0,0,1,.747.646c.025.153.01.174-.145.174Z" transform="translate(-57.996 -51.974)" fill="#f99d3c"/>
  </g>
</svg>
