<svg xmlns="http://www.w3.org/2000/svg" width="17.957" height="17.948" viewBox="0 0 17.957 17.948">
  <g id="Group_413" data-name="Group 413" transform="translate(-1236 -18.952)">
    <g id="Group_54" data-name="Group 54" transform="translate(-0.043 1)">
      <g id="Group_29" data-name="Group 29" transform="translate(37)">
        <g id="Group_27" data-name="Group 27">
          <g id="Group_25" data-name="Group 25" transform="translate(861.586 547.121)">
            <path id="Path_273" data-name="Path 273" d="M347.173-511.223H345.7c-.191-.025-.381-.048-.572-.076a8.938,8.938,0,0,1-3.173-1.1.262.262,0,0,0-.232-.029q-1.764.607-3.528,1.21c-.222,0-.444,0-.666,0-.061,0-.073-.011-.072-.072,0-.222,0-.443,0-.665q.606-1.761,1.213-3.521a.294.294,0,0,0-.048-.262,8.991,8.991,0,0,1-.843-1.992,10.828,10.828,0,0,1-.323-1.715v-1.505c.034-.242.062-.485.1-.726a8.97,8.97,0,0,1,10.724-7.279,8.777,8.777,0,0,1,6.839,6.444,9.217,9.217,0,0,1,.289,1.6v1.47c-.042.294-.067.591-.129.88a8.909,8.909,0,0,1-6.445,7.038A9.06,9.06,0,0,1,347.173-511.223Zm-.61-1.138c.213-.017.565-.026.911-.074a7.635,7.635,0,0,0,4.694-2.433,7.6,7.6,0,0,0,2.028-6.349,7.469,7.469,0,0,0-2.458-4.709,7.627,7.627,0,0,0-6.352-2,7.51,7.51,0,0,0-4.69,2.436,7.64,7.64,0,0,0-2.057,6.04,7.436,7.436,0,0,0,1.147,3.381.749.749,0,0,1,.08.7c-.281.8-.551,1.6-.823,2.4-.022.064-.085.141-.032.195s.142-.006.21-.029c.769-.26,1.54-.513,2.3-.791a.909.909,0,0,1,.86.09A7.861,7.861,0,0,0,346.563-512.361Z" transform="translate(0 0)" fill="#b1b1b1"/>
          </g>
        </g>
      </g>
    </g>
  </g>
</svg>
