<svg xmlns="http://www.w3.org/2000/svg" width="9.65" height="15.274" viewBox="0 0 9.65 15.274">
  <g id="Group_369" data-name="Group 369" transform="translate(-455.253 -384.75)">
    <path id="Path_3771" data-name="Path 3771" d="M457.669,384.75c0,.259,0,.517,0,.776,0,.1.023.172.128.078a.377.377,0,0,1,.482-.025c.758.383,1.523.753,2.289,1.122a.233.233,0,0,1,.157.251c-.01.208,0,.417,0,.626,0,.17-.011.177-.167.111q-1.127-.473-2.254-.948c-.266-.112-.265-.114-.265.177V399.64c0,.035,0,.07,0,.1,0,.23,0,.231-.226.231h-2.326c-.228,0-.229,0-.229-.231q0-4.392,0-8.784c0-1.158,0-2.317,0-3.475a.339.339,0,0,1,.175-.327c.516-.328,1.022-.671,1.536-1a.254.254,0,0,0,.132-.242c0-.387,0-.775.007-1.163Zm-.041,8.756-.9.51a.141.141,0,0,0-.067.139c0,.373,0,.745,0,1.118,0,.1.032.124.122.074.252-.14.505-.276.759-.413a.135.135,0,0,0,.085-.127C457.628,394.384,457.629,393.962,457.629,393.506Zm0,2.847c0-.194,0-.388,0-.582,0-.1-.03-.111-.111-.063-.253.148-.508.292-.764.436a.147.147,0,0,0-.091.139q0,.574,0,1.148c0,.085.026.11.105.066.256-.142.513-.284.771-.423a.154.154,0,0,0,.089-.156C457.627,396.731,457.629,396.542,457.629,396.353Zm0-8.572c0-.189,0-.377,0-.566,0-.1-.027-.124-.118-.071q-.374.217-.752.426a.18.18,0,0,0-.1.182c0,.362,0,.725,0,1.087,0,.107.022.136.124.079.247-.139.5-.273.746-.405a.163.163,0,0,0,.1-.165C457.626,388.158,457.629,387.97,457.629,387.781Zm0,2.143c0-.189,0-.378,0-.566,0-.1-.021-.129-.118-.073q-.373.219-.751.427a.168.168,0,0,0-.1.166c0,.373,0,.745,0,1.118,0,.114.037.113.121.067.243-.136.486-.27.733-.4a.2.2,0,0,0,.114-.2C457.625,390.282,457.629,390.1,457.629,389.924Zm-.965,2.643c0,.194,0,.388,0,.581,0,.1.031.107.111.061q.377-.212.758-.415a.165.165,0,0,0,.1-.166q0-.559,0-1.118c0-.1-.021-.14-.125-.079q-.366.215-.739.419a.178.178,0,0,0-.1.179C456.668,392.21,456.665,392.389,456.665,392.568Zm-.193.1c0-.189,0-.378,0-.566,0-.1-.008-.153-.126-.083-.239.143-.482.277-.726.412a.17.17,0,0,0-.1.168c0,.368,0,.735,0,1.1,0,.114.033.129.128.076q.357-.2.72-.392a.166.166,0,0,0,.1-.166C456.469,393.038,456.471,392.854,456.471,392.671Zm0,2.12c0-.194,0-.388,0-.581,0-.071-.014-.108-.094-.062q-.387.224-.777.442a.14.14,0,0,0-.074.135c0,.383,0,.765,0,1.148,0,.09.029.1.106.061.243-.136.487-.27.732-.4a.186.186,0,0,0,.109-.191C456.468,395.159,456.471,394.975,456.471,394.791Zm0-6.427c0-.189,0-.377,0-.566,0-.1-.03-.113-.114-.065-.249.144-.5.285-.751.426a.149.149,0,0,0-.081.146q0,.558,0,1.117c0,.094.023.133.12.078q.357-.2.718-.393a.189.189,0,0,0,.109-.192C456.468,388.731,456.471,388.547,456.471,388.364Zm0,8.587c0-.194,0-.387,0-.581,0-.088-.019-.124-.11-.071-.249.145-.5.286-.75.428a.153.153,0,0,0-.086.144c0,.382,0,.765,0,1.147,0,.1.033.1.105.057.247-.137.5-.273.746-.406a.164.164,0,0,0,.1-.167C456.469,397.318,456.471,397.134,456.471,396.951Zm-.945-5.94c0,.189,0,.377,0,.566,0,.1.031.112.115.065q.364-.2.732-.4a.167.167,0,0,0,.1-.165q0-.566,0-1.132c0-.111-.043-.115-.126-.067q-.361.209-.724.413a.169.169,0,0,0-.1.167C455.528,390.644,455.526,390.827,455.526,391.011Z" transform="translate(0)" fill="#f99d3c"/>
    <path id="Path_3772" data-name="Path 3772" d="M604.875,532.521c0-.059-.012-.118-.012-.178q0-4.108,0-8.216a.324.324,0,0,1,.17-.312c.528-.337,1.051-.682,1.572-1.028a.228.228,0,0,1,.259-.021q.773.387,1.553.761a.219.219,0,0,1,.145.227q0,4.317,0,8.633c0,.044-.008.089-.012.133h-.537c0-.074-.01-.149-.01-.223q0-4.027,0-8.054a.265.265,0,0,0-.2-.293c-.3-.113-.588-.243-.881-.367-.157-.066-.168-.061-.168.107q0,4.415,0,8.829Zm.8-4.936c0-.114,0-.229,0-.343,0-.1-.036-.113-.116-.066-.146.085-.292.169-.44.251a.158.158,0,0,0-.084.16c0,.169,0,.338,0,.507,0,.3-.047.29.263.153S605.769,527.93,605.674,527.585Zm.776-3.232c0-.183,0-.307,0-.431,0-.072-.025-.089-.09-.051-.146.085-.293.169-.442.248a.185.185,0,0,0-.109.191c.006.169,0,.338,0,.507,0,.274-.007.259.247.144C606.357,524.826,606.56,524.658,606.45,524.352Zm-.775.334c0-.094,0-.189,0-.283,0-.177-.01-.182-.158-.1-.126.07-.248.147-.377.212a.18.18,0,0,0-.106.191c.005.164,0,.328,0,.492,0,.281-.008.263.249.154C605.592,525.222,605.777,525.045,605.675,524.687Zm-.639,1.724c0,.178,0,.3,0,.416,0,.085.031.093.1.055a3.179,3.179,0,0,1,.353-.19.287.287,0,0,0,.192-.337c-.013-.132,0-.267,0-.4,0-.292.009-.273-.255-.152C605.119,525.938,604.933,526.114,605.035,526.411Zm.639,2.684c0-.178,0-.3,0-.417,0-.092-.03-.1-.1-.057-.141.084-.284.164-.429.241a.185.185,0,0,0-.108.192c.006.164,0,.328,0,.492,0,.29-.009.269.261.151C605.6,529.562,605.773,529.385,605.675,529.095Zm.776-1.851c0-.178,0-.3,0-.416,0-.078-.02-.1-.094-.057-.145.085-.29.171-.44.248a.182.182,0,0,0-.108.19c.005.173,0,.347,0,.52,0,.254-.007.238.231.137C606.354,527.733,606.562,527.56,606.45,527.243Zm0,2.852c0-.05,0-.1,0-.149,0-.329,0-.334-.291-.164-.427.252-.337.1-.348.586,0,.074,0,.149,0,.223,0,.292-.008.274.256.159C606.366,530.619,606.554,530.45,606.451,530.1Zm-.776.388c0-.114,0-.229,0-.343,0-.093-.025-.119-.112-.067-.128.076-.257.152-.39.217a.228.228,0,0,0-.14.249c.009.153,0,.308,0,.462,0,.281-.008.264.25.148C605.584,531.015,605.782,530.845,605.675,530.484Zm.776-4.739c0-.114,0-.228,0-.342s-.037-.116-.121-.065c-.136.082-.273.162-.414.235a.183.183,0,0,0-.105.192c0,.164,0,.328,0,.491,0,.3-.029.274.247.154C606.36,526.277,606.558,526.107,606.45,525.745Zm-.639,3.159c0,.183,0,.307,0,.431,0,.072.023.089.089.052q.234-.132.471-.258a.157.157,0,0,0,.08-.162c0-.164,0-.328,0-.492,0-.309.009-.289-.268-.164C605.888,528.447,605.718,528.622,605.812,528.9Z" transform="translate(-143.656 -132.497)" fill="#f99d3c"/>
    <path id="Path_3773" data-name="Path 3773" d="M553.845,548.365c0,.144,0,.288,0,.432,0,.092-.028.132-.123.094q-.5-.2-1-.4a.131.131,0,0,1-.088-.139q0-.462,0-.924c0-.106.047-.114.132-.076q.484.213.97.42a.151.151,0,0,1,.1.16C553.843,548.077,553.845,548.221,553.845,548.365Z" transform="translate(-93.512 -156.116)" fill="#f99d3c"/>
    <path id="Path_3774" data-name="Path 3774" d="M533.537,602.29c0,.144,0,.288,0,.432,0,.089-.033.119-.119.084q-.5-.2-.995-.4a.132.132,0,0,1-.093-.136c0-.308,0-.616,0-.923,0-.1.042-.12.13-.082q.491.215.984.425a.144.144,0,0,1,.094.152C533.535,601.992,533.537,602.141,533.537,602.29Z" transform="translate(-74.011 -207.886)" fill="#f99d3c"/>
    <path id="Path_3775" data-name="Path 3775" d="M555.186,671.473c0,.144,0,.288,0,.432,0,.1-.026.142-.133.1q-.482-.2-.967-.387a.147.147,0,0,1-.105-.157q0-.454,0-.908c0-.1.029-.126.123-.084q.49.216.984.425a.155.155,0,0,1,.1.165C555.184,671.195,555.186,671.334,555.186,671.473Z" transform="translate(-94.801 -274.333)" fill="#f99d3c"/>
    <path id="Path_3776" data-name="Path 3776" d="M532.314,455.931c0-.149,0-.3,0-.447,0-.1.039-.126.129-.087q.492.214.985.425a.146.146,0,0,1,.093.153c0,.288,0,.577,0,.865,0,.112-.047.125-.139.088-.318-.129-.636-.256-.956-.381a.156.156,0,0,1-.114-.168c0-.149,0-.3,0-.447Z" transform="translate(-73.994 -67.821)" fill="#f99d3c"/>
    <path id="Path_3777" data-name="Path 3777" d="M562.892,509.066c0,.144,0,.288,0,.432,0,.094-.024.129-.122.089q-.489-.2-.982-.391a.141.141,0,0,1-.1-.146c0-.308,0-.616,0-.923,0-.089.039-.117.122-.08q.5.218,1,.433a.133.133,0,0,1,.086.14C562.89,508.769,562.892,508.917,562.892,509.066Z" transform="translate(-102.201 -118.377)" fill="#f99d3c"/>
  </g>
</svg>
