<svg id="Group_406" data-name="Group 406" xmlns="http://www.w3.org/2000/svg" width="16.073" height="16.054" viewBox="0 0 16.073 16.054">
  <path id="Path_266" data-name="Path 266" d="M-47.25-351.726a1.415,1.415,0,0,1,.757-.949,1.406,1.406,0,0,1,.623-.129q3.979,0,7.957,0a1.344,1.344,0,0,1,1.4,1.345c.016.757.006,1.514,0,2.271a.373.373,0,0,1-.274.407.339.339,0,0,1-.428-.348c0-.616,0-1.232,0-1.848a3.07,3.07,0,0,0-.018-.578.623.623,0,0,0-.645-.544c-.487,0-.973,0-1.46,0q-3.249,0-6.5,0a.7.7,0,0,0-.543.194.586.586,0,0,0-.175.407c0,.047,0,.094,0,.141q0,6.587,0,13.174a.716.716,0,0,0,.2.571.678.678,0,0,0,.489.172c.916,0,1.831,0,2.747,0,1.711,0,3.422-.01,5.132.006a.709.709,0,0,0,.777-.785c-.011-.726,0-1.452,0-2.177a.333.333,0,0,1,.366-.371.326.326,0,0,1,.311.244.761.761,0,0,1,.028.248c0,.663-.015,1.327,0,1.989a1.43,1.43,0,0,1-1.106,1.539h-8.57a1.433,1.433,0,0,1-1.067-1.065Z" transform="translate(47.25 352.804)" fill="#fff"/>
  <path id="Path_267" data-name="Path 267" d="M60.58-252.879a6.067,6.067,0,0,1-.8.773c-.944.872-1.9,1.736-2.844,2.6-.139.127-.277.255-.416.381a.372.372,0,0,1-.554.026c-.146-.164-.124-.354.072-.534q1.559-1.431,3.12-2.86a.335.335,0,0,0,.129-.162H49.027a1.6,1.6,0,0,1-.2-.005.347.347,0,0,1-.308-.355.346.346,0,0,1,.308-.34,1.611,1.611,0,0,1,.2-.005H59.282c-.007-.083-.069-.112-.111-.151q-1.53-1.4-3.063-2.805c-.046-.042-.093-.084-.135-.131a.338.338,0,0,1-.005-.468.341.341,0,0,1,.455-.051,4.042,4.042,0,0,1,.331.287l3.664,3.356a.874.874,0,0,1,.162.191Z" transform="translate(-44.507 261.037)" fill="#fff"/>
</svg>
