<svg xmlns="http://www.w3.org/2000/svg" width="15.032" height="17.548" viewBox="0 0 15.032 17.548">
  <g id="Group_414" data-name="Group 414" transform="translate(-1235.308 -18.246)">
    <g id="Group_26" data-name="Group 26">
      <path id="Path_274" data-name="Path 274" d="M4240.766,1126.226q0,1.006,0,2.013a4.987,4.987,0,0,0,.377,1.961c.273.655.515,1.323.8,1.974a.68.68,0,0,1-.678,1c-1.465-.026-2.932-.007-4.4-.011a.366.366,0,0,0-.339.17,2.429,2.429,0,0,1-4.055,0,.367.367,0,0,0-.337-.174q-2.209.007-4.417,0a.651.651,0,0,1-.659-.981c.265-.666.525-1.333.8-1.994a5,5,0,0,0,.371-1.943c0-1.329-.013-2.658,0-3.986a5.979,5.979,0,0,1,1.613-4.043,6.189,6.189,0,0,1,2.614-1.723.3.3,0,0,0,.213-.222,1.887,1.887,0,0,1,3.643,0,.34.34,0,0,0,.25.237,6.211,6.211,0,0,1,4.059,4.551,4.9,4.9,0,0,1,.141,1.2c0,.658,0,1.316,0,1.974Zm-6.268,5.657h5.707c.219,0,.22,0,.141-.2-.151-.381-.308-.761-.457-1.143a5.57,5.57,0,0,1-.4-2.076q.009-1.964,0-3.928a6.035,6.035,0,0,0-.094-1.068,4.967,4.967,0,0,0-5.245-4.037,4.871,4.871,0,0,0-3.868,2.322,5.211,5.211,0,0,0-.772,2.98c.011,1.277,0,2.553,0,3.83a5.061,5.061,0,0,1-.177,1.292,17.276,17.276,0,0,1-.668,1.793c-.09.235-.093.235.168.235Z" transform="translate(-2991.672 -1098.627)" fill="#b1b1b1"/>
    </g>
  </g>
</svg>
