<svg xmlns="http://www.w3.org/2000/svg" width="15.998" height="15.997" viewBox="0 0 15.998 15.997">
  <g id="Group_405" data-name="Group 405" transform="translate(-2720 -801.857)">
    <g id="Group_404" data-name="Group 404" transform="translate(2720 801.857)">
      <path id="Path_264" data-name="Path 264" d="M330.638-176.989a1,1,0,0,1-.7-1.089c.016-.4,0-.8.006-1.2a.2.2,0,0,0-.166-.233,4.618,4.618,0,0,1-1.071-.463.157.157,0,0,0-.228.036c-.289.292-.584.578-.878.866a.907.907,0,0,1-1.357-.006q-.426-.424-.847-.852a.91.91,0,0,1,0-1.349c.3-.308.612-.61.923-.908a.184.184,0,0,0,.041-.257,4.278,4.278,0,0,1-.33-.824.173.173,0,0,0-.2-.145c-.447,0-.895,0-1.342,0a.937.937,0,0,1-.985-.989c.022-.4,0-.8,0-1.2a.905.905,0,0,1,.929-.943q.687-.009,1.373,0a.2.2,0,0,0,.229-.171,4.652,4.652,0,0,1,.459-1.056.165.165,0,0,0-.033-.24c-.331-.324-.655-.654-.981-.983a.922.922,0,0,1,0-1.446c.272-.272.544-.544.819-.814a.891.891,0,0,1,1.3-.035c.368.344.718.709,1.066,1.074a.25.25,0,0,0,.358.064,3.242,3.242,0,0,1,.752-.3.188.188,0,0,0,.166-.217c-.007-.437.007-.874,0-1.311a.942.942,0,0,1,1-1.008c.389.021.78,0,1.17,0a.913.913,0,0,1,.965.957c0,.437.007.874,0,1.311,0,.154.037.233.2.276a3.751,3.751,0,0,1,.821.337.172.172,0,0,0,.243-.035c.354-.36.713-.714,1.072-1.068a.908.908,0,0,1,1.368,0q.426.424.848.852a.907.907,0,0,1,0,1.347q-.517.521-1.041,1.033a.165.165,0,0,0-.033.24,4.6,4.6,0,0,1,.439,1.031.184.184,0,0,0,.208.157c.411-.006.822.008,1.233,0a.992.992,0,0,1,1.076.694v1.748a.99.99,0,0,1-1.075.7c-.416-.014-.832,0-1.248,0a.166.166,0,0,0-.189.139,4.453,4.453,0,0,1-.356.88.174.174,0,0,0,.039.242c.309.3.612.609.915.917a.906.906,0,0,1,0,1.347q-.422.428-.852.848a.913.913,0,0,1-1.381-.013c-.287-.287-.574-.573-.857-.864a.149.149,0,0,0-.214-.031,4.879,4.879,0,0,1-1.059.452.173.173,0,0,0-.144.2c0,.426,0,.853,0,1.28a.95.95,0,0,1-.726,1.031Zm-5.347-9.109c-.271,0-.541,0-.811,0a.486.486,0,0,0-.54.54q-.006.577,0,1.155a.488.488,0,0,0,.543.539c.551,0,1.1,0,1.654,0,.137,0,.2.038.238.178a4.691,4.691,0,0,0,.527,1.312.184.184,0,0,1-.041.267c-.38.37-.755.746-1.13,1.121a.477.477,0,0,0,0,.751q.4.406.8.808a.487.487,0,0,0,.805.006c.354-.352.71-.7,1.06-1.059a.177.177,0,0,1,.265-.037,4.936,4.936,0,0,0,1.553.671c.148.035.186.108.184.251-.007.551,0,1.1,0,1.654a.459.459,0,0,0,.519.517q.593,0,1.186,0a.464.464,0,0,0,.528-.526c0-.562,0-1.124,0-1.685a.177.177,0,0,1,.158-.2,4.957,4.957,0,0,0,1.542-.658.167.167,0,0,1,.251.031q.536.556,1.084,1.1a.479.479,0,0,0,.764,0q.412-.4.819-.814a.481.481,0,0,0,0-.772c-.365-.37-.727-.744-1.1-1.108a.2.2,0,0,1-.037-.293,4.679,4.679,0,0,0,.536-1.326c.035-.149.106-.187.249-.185.557.007,1.113,0,1.67,0a.453.453,0,0,0,.5-.5q0-.609,0-1.217a.462.462,0,0,0-.523-.515c-.562,0-1.124,0-1.685,0a.177.177,0,0,1-.206-.156,5.039,5.039,0,0,0-.657-1.543.167.167,0,0,1,.028-.252c.428-.418.851-.841,1.273-1.265a.47.47,0,0,0,.007-.728q-.4-.409-.8-.812a.505.505,0,0,0-.835,0c-.414.41-.829.819-1.237,1.235a.2.2,0,0,1-.292.043,4.726,4.726,0,0,0-1.34-.541.192.192,0,0,1-.174-.224c.006-.557,0-1.113,0-1.67a.464.464,0,0,0-.528-.526q-.593,0-1.186,0a.459.459,0,0,0-.519.517c0,.557,0,1.113,0,1.67,0,.128-.033.2-.168.231a4.85,4.85,0,0,0-1.355.545c-.1.057-.157.029-.229-.044q-.644-.658-1.294-1.31a.487.487,0,0,0-.755,0c-.275.27-.547.542-.819.814a.485.485,0,0,0,0,.774c.414.417.827.835,1.245,1.249a.17.17,0,0,1,.035.252,5.14,5.14,0,0,0-.687,1.6.162.162,0,0,1-.185.143C325.884-186.1,325.588-186.1,325.291-186.1Z" transform="translate(-323.504 192.986)" fill="#fff"/>
      <path id="Path_265" data-name="Path 265" d="M445.036-74.5a3.082,3.082,0,0,1,3.067,3.074,3.083,3.083,0,0,1-3.068,3.058,3.076,3.076,0,0,1-3.064-3.075A3.074,3.074,0,0,1,445.036-74.5Zm-2.617,3.056a2.6,2.6,0,0,0,2.606,2.626,2.609,2.609,0,0,0,2.628-2.608,2.6,2.6,0,0,0-2.609-2.625A2.6,2.6,0,0,0,442.42-71.449Z" transform="translate(-437.031 79.446)" fill="#fff"/>
    </g>
  </g>
</svg>
