<svg xmlns="http://www.w3.org/2000/svg" width="17.889" height="17.889" viewBox="0 0 17.889 17.889">
  <g id="Group_415" data-name="Group 415" transform="translate(-4795.42 -550.193)">
    <path id="Path_275" data-name="Path 275" d="M4813.06,560.387a.945.945,0,0,1-1.04.69c-.481,0-.962,0-1.443,0a.6.6,0,0,0-.634.689.579.579,0,0,0,.193.366q.51.51,1.02,1.02a.941.941,0,0,1,0,1.5q-.648.648-1.3,1.3a.946.946,0,0,1-1.438-.009c-.341-.346-.691-.684-1.03-1.033a.613.613,0,0,0-1.075.451c0,.515,0,1.029,0,1.544a.9.9,0,0,1-.921.923q-1.026,0-2.053,0a.9.9,0,0,1-.916-.911c0-.532,0-1.063,0-1.595a.607.607,0,0,0-1.064-.419c-.355.356-.708.716-1.069,1.066a.944.944,0,0,1-1.165.182,1,1,0,0,1-.212-.168q-.694-.7-1.392-1.392a.9.9,0,0,1,0-1.366c.358-.362.713-.727,1.075-1.084a.594.594,0,0,0,.161-.68.586.586,0,0,0-.6-.385c-.515,0-1.029,0-1.544,0a.9.9,0,0,1-.944-.934q0-1.018,0-2.036a.9.9,0,0,1,.924-.92c.525,0,1.052,0,1.578,0a.6.6,0,0,0,.625-.7.594.594,0,0,0-.2-.364l-1.074-1.085a.906.906,0,0,1,0-1.378q.683-.685,1.368-1.368a.924.924,0,0,1,1.363-.025c.365.345.72.7,1.069,1.066a.615.615,0,0,0,.7.19.6.6,0,0,0,.391-.648q0-.7,0-1.391a.944.944,0,0,1,.69-1.039h2.511a.945.945,0,0,1,.69,1.039c0,.469,0,.938,0,1.408a.6.6,0,0,0,.389.632.6.6,0,0,0,.691-.176c.338-.349.688-.687,1.03-1.032a.943.943,0,0,1,1.437,0q.648.646,1.295,1.295a.937.937,0,0,1,.006,1.492c-.342.346-.687.688-1.03,1.032a.579.579,0,0,0-.191.349.6.6,0,0,0,.618.7c.485.007.972,0,1.458,0a.945.945,0,0,1,1.039.69Zm-16.72-1.255c0,.3,0,.6,0,.9s.081.374.371.375c.486,0,.973,0,1.459,0a1.287,1.287,0,0,1,.32.024,1.245,1.245,0,0,1,.947.9,1.208,1.208,0,0,1-.319,1.249c-.354.366-.719.72-1.078,1.082-.194.2-.193.289,0,.484q.653.655,1.308,1.308c.2.2.292.2.5,0,.357-.355.708-.716,1.069-1.066a1.276,1.276,0,0,1,2.179.9c0,.5,0,1.007,0,1.51,0,.279.086.361.368.361h1.815c.281,0,.366-.083.367-.364,0-.492,0-.984,0-1.476a1.374,1.374,0,0,1,.03-.337,1.278,1.278,0,0,1,2.14-.608c.366.354.721.719,1.081,1.078.2.2.295.2.5,0q.65-.647,1.3-1.3c.208-.209.208-.3,0-.508-.354-.357-.717-.707-1.065-1.07a1.277,1.277,0,0,1,.9-2.173c.509-.005,1.018,0,1.527,0,.268,0,.353-.09.353-.36q0-.908,0-1.815c0-.291-.082-.374-.372-.376-.487,0-.973,0-1.46,0a1.293,1.293,0,0,1-.32-.024,1.245,1.245,0,0,1-.946-.9,1.207,1.207,0,0,1,.319-1.249c.354-.366.72-.72,1.078-1.082.194-.2.193-.29,0-.484q-.653-.655-1.308-1.308c-.2-.2-.292-.2-.5,0-.357.355-.708.716-1.07,1.066a1.277,1.277,0,0,1-2.179-.9c0-.5,0-1.007,0-1.51,0-.279-.087-.361-.368-.362h-1.816c-.28,0-.365.083-.366.363,0,.486,0,.973,0,1.459a1.334,1.334,0,0,1-.021.321,1.246,1.246,0,0,1-.9.952,1.2,1.2,0,0,1-1.25-.311c-.372-.357-.729-.727-1.095-1.089-.187-.186-.284-.184-.472,0q-.661.659-1.32,1.32c-.192.193-.192.287,0,.484.35.353.7.7,1.055,1.057a1.233,1.233,0,0,1,.282,1.434,1.217,1.217,0,0,1-1.194.766h-1.442c-.328,0-.4.074-.4.394Q4796.339,558.691,4796.34,559.132Z" fill="#b1b1b1" stroke="#b1b1b1" stroke-width="0.5"/>
    <path id="Path_276" data-name="Path 276" d="M4926.069,683.477a2.921,2.921,0,1,1,2.92-2.923A2.947,2.947,0,0,1,4926.069,683.477Zm-2.232-2.923a2.231,2.231,0,1,0,2.233-2.229A2.228,2.228,0,0,0,4923.836,680.553Z" transform="translate(-121.697 -121.424)" fill="#b1b1b1" stroke="#b1b1b1" stroke-width="0.5"/>
  </g>
</svg>
