<svg xmlns="http://www.w3.org/2000/svg" width="6.444" height="7.943" viewBox="0 0 6.444 7.943">
  <g id="Group_374" data-name="Group 374" transform="translate(-1651.178 -330.75)">
    <path id="Path_3782" data-name="Path 3782" d="M1654.706,330.75a3.677,3.677,0,0,1,.673.141,3.168,3.168,0,0,1,2.2,2.615,2.929,2.929,0,0,1-.294,1.866,3.57,3.57,0,0,1-.49.667l-2.111,2.479a.676.676,0,0,1-.2.174h-.186a.989.989,0,0,1-.28-.275c-.724-.849-1.445-1.7-2.172-2.549a2.73,2.73,0,0,1-.656-1.552,3.185,3.185,0,0,1,.989-2.7,3.034,3.034,0,0,1,1.749-.847c.051-.007.1-.017.152-.025Zm-2.959,3.237a1.719,1.719,0,0,0,.014.238,2.151,2.151,0,0,0,.483,1.22q1.046,1.233,2.094,2.463c.055.065.06.064.122-.008q.925-1.086,1.849-2.173a3.364,3.364,0,0,0,.455-.6,2.492,2.492,0,0,0,.234-1.641,2.647,2.647,0,0,0-5.251.5Z" transform="translate(0)" fill="#ff0707"/>
    <path id="Path_3783" data-name="Path 3783" d="M1732.658,413.152a1.564,1.564,0,1,1,1.564-1.565A1.564,1.564,0,0,1,1732.658,413.152Zm.99-1.562a.989.989,0,1,0-.993.99A.989.989,0,0,0,1733.648,411.59Z" transform="translate(-78.263 -77.635)" fill="#ff0707"/>
  </g>
</svg>
