<?xml version="1.0" encoding="utf-8"?>
<!-- Generator: Adobe Illustrator 23.1.1, SVG Export Plug-In . SVG Version: 6.00 Build 0)  -->
<svg version="1.1" id="Layer_1" xmlns="http://www.w3.org/2000/svg" xmlns:xlink="http://www.w3.org/1999/xlink" x="0px" y="0px"
	 viewBox="0 0 1152 432" style="enable-background:new 0 0 1152 432;" xml:space="preserve">
<style type="text/css">
	.st0{fill:#59B2E3;}
	.st1{clip-path:url(#SVGID_2_);fill:url(#SVGID_3_);}
	.st2{clip-path:url(#SVGID_5_);fill:url(#SVGID_6_);}
	.st3{clip-path:url(#SVGID_8_);fill:url(#SVGID_9_);}
	.st4{clip-path:url(#SVGID_11_);fill:url(#SVGID_12_);}
	.st5{clip-path:url(#SVGID_14_);fill:url(#SVGID_15_);}
	.st6{clip-path:url(#SVGID_17_);fill:url(#SVGID_18_);}
	.st7{clip-path:url(#SVGID_20_);fill:url(#SVGID_21_);}
	.st8{clip-path:url(#SVGID_23_);fill:url(#SVGID_24_);}
	.st9{clip-path:url(#SVGID_26_);fill:url(#SVGID_27_);}
</style>
<polygon class="st0" points="392.59,147.58 392.59,287.65 367.58,268.44 277.54,199.01 277.54,287.65 252.52,287.65 252.52,147.98 
	277.54,167.19 367.58,236.62 367.58,147.38 "/>
<rect x="412.6" y="147.38" class="st0" width="25.01" height="140.07"/>
<path class="st0" d="M527.46,147.58c38.62,0,70.03,31.22,70.03,69.84c0,17.21-6.2,33.02-16.61,45.22c-1.2,1.4-2.6,2.8-4,4.2
	c-12.61,12.81-30.02,20.61-49.23,20.61h-70.03V147.38L527.46,147.58z M482.43,262.64h45.02c24.81,0,45.02-20.21,45.02-45.02
	s-20.21-45.02-45.02-45.02h-45.02V262.64z"/>
<path class="st0" d="M875.22,186.2v-0.8c0-7-5.8-12.81-12.81-12.81h-56.83c-7,0-12.81,5.8-12.81,12.81v0.8
	c0,7,5.8,12.81,12.81,12.81h50.42c13.01,0,24.61,5.6,32.62,14.41c0.6,0.6,1,1.2,1.6,1.8c6.2,7.6,10,17.41,10,28.01
	c0,24.41-19.81,44.22-44.22,44.22h-43.82c-24.41,0-44.22-19.81-44.22-44.22h25.01c0,10.6,8.61,19.21,19.21,19.21h43.82
	c10.6,0,19.41-8.61,19.41-19.21c0-10.6-8.8-19.21-19.41-19.21h-50.42c-10.21,0-19.41-4-26.21-10.6c-1.8-1.8-3.4-3.8-4.8-6
	c-4.2-6-6.6-13.41-6.6-21.41v-0.8c0-20.81,16.81-37.82,37.62-37.82h56.83c20.81,0,37.82,17.01,37.82,37.82v0.8L875.22,186.2z"/>
<g>
	<defs>
		<path id="SVGID_1_" d="M645.28,169.33c-8.87,5.43-15.75,13.51-19.18,24.2c-0.51,1.59-0.9,3.19-1.23,4.79
			c13.86-24.72,47.56-29.16,75.83-16.14c4.37,1.76,8.93-8.94,1.18-12.83c-11.04-4.71-21.05-6.28-29.5-6.28
			C657.47,163.08,647.45,168.01,645.28,169.33"/>
	</defs>
	<clipPath id="SVGID_2_">
		<use xlink:href="#SVGID_1_"  style="overflow:visible;"/>
	</clipPath>
	
		<radialGradient id="SVGID_3_" cx="433.3448" cy="360.1996" r="2.8219" gradientTransform="matrix(30.4252 23.7702 -23.7702 30.4252 -4000.1704 -21076.0098)" gradientUnits="userSpaceOnUse">
		<stop  offset="0" style="stop-color:#FBB041"/>
		<stop  offset="1" style="stop-color:#F15A2A"/>
	</radialGradient>
	<polygon class="st1" points="607.77,184.96 677.51,239.45 726.74,176.44 657,121.95 	"/>
</g>
<g>
	<defs>
		<path id="SVGID_4_" d="M635.95,194.51c-0.01,0.01-0.02,0.01-0.03,0.01h0.01c-8.1,5.48-14.5,13.61-17.71,23.64
			c-7.58,23.68,5.45,48.99,29.12,56.58c8.34,2.67,16.86,2.79,24.74,0.82c-37.62,3.39-55.83-31.79-43.77-54.82
			c6.24-11.93,29.91-30.97,67.57-15.07c5.89,2.36,10.39-10.36,3.23-13.62c-11.5-4.22-21.92-5.77-30.92-5.77
			C652.53,186.28,641.18,190.98,635.95,194.51"/>
	</defs>
	<clipPath id="SVGID_5_">
		<use xlink:href="#SVGID_4_"  style="overflow:visible;"/>
	</clipPath>
	
		<radialGradient id="SVGID_6_" cx="433.3448" cy="360.1996" r="2.8219" gradientTransform="matrix(30.4242 23.7695 -23.7695 30.4242 -3999.9624 -21075.3066)" gradientUnits="userSpaceOnUse">
		<stop  offset="0" style="stop-color:#FBB041"/>
		<stop  offset="1" style="stop-color:#F15A2A"/>
	</radialGradient>
	<polygon class="st2" points="565.67,243.82 670.02,325.35 751.23,221.4 646.88,139.88 	"/>
</g>
<g>
	<defs>
		<path id="SVGID_7_" d="M603.31,189.23c-5.16,3.39-6.59,10.32-3.19,15.48c3.39,5.16,10.32,6.58,15.48,3.19
			c5.16-3.39,6.59-10.32,3.2-15.48c-2.15-3.26-5.71-5.03-9.35-5.03C607.34,187.39,605.2,187.99,603.31,189.23"/>
	</defs>
	<clipPath id="SVGID_8_">
		<use xlink:href="#SVGID_7_"  style="overflow:visible;"/>
	</clipPath>
	
		<radialGradient id="SVGID_9_" cx="433.3448" cy="360.1996" r="2.8219" gradientTransform="matrix(30.4236 23.769 -23.769 30.4236 -3999.9224 -21074.875)" gradientUnits="userSpaceOnUse">
		<stop  offset="0" style="stop-color:#FBB041"/>
		<stop  offset="1" style="stop-color:#F15A2A"/>
	</radialGradient>
	<polygon class="st3" points="585.13,202.23 612.53,223.64 633.78,196.45 606.37,175.04 	"/>
</g>
<g>
	<defs>
		<path id="SVGID_10_" d="M647.15,228.4c5.45,32.76,26.85,45.99,30.41,47.73c9.35,4.56,19.87,6.01,30.72,3.15
			c1.61-0.43,3.17-0.95,4.7-1.54c-28.29,1.61-50.16-24.41-54.39-55.25c-0.3-1.63-1.92-2.45-3.86-2.45
			C651.19,220.05,646.57,222.82,647.15,228.4"/>
	</defs>
	<clipPath id="SVGID_11_">
		<use xlink:href="#SVGID_10_"  style="overflow:visible;"/>
	</clipPath>
	
		<radialGradient id="SVGID_12_" cx="432.2029" cy="364.0381" r="2.8219" gradientTransform="matrix(3.1995 -26.4276 26.4276 3.1995 -10306.3408 10513.9189)" gradientUnits="userSpaceOnUse">
		<stop  offset="0" style="stop-color:#939598"/>
		<stop  offset="1" style="stop-color:#424143"/>
	</radialGradient>
	<polygon class="st4" points="712.03,290.08 720.4,220.94 647.53,212.12 639.16,281.25 	"/>
</g>
<g>
	<defs>
		<path id="SVGID_13_" d="M730.04,262.8c-13.41,1.15-42.2-8.56-49.06-48.86c-1.18-6.23-14.32-3.18-13.22,4.6
			c7.2,32.8,26.94,47.97,36.05,51.92c0.01,0.01,0.01,0.01,0.02,0.02v-0.01c8.97,3.89,19.27,4.9,29.45,2.22
			c20.08-5.3,33.4-23.34,33.53-43.15v-0.63c-0.03-3.7-0.51-7.45-1.5-11.19c-2.23-8.47-6.71-15.72-12.62-21.3
			C775.81,226.3,755.94,260.58,730.04,262.8"/>
	</defs>
	<clipPath id="SVGID_14_">
		<use xlink:href="#SVGID_13_"  style="overflow:visible;"/>
	</clipPath>
	
		<radialGradient id="SVGID_15_" cx="432.2029" cy="364.0382" r="2.8219" gradientTransform="matrix(3.1994 -26.4272 26.4272 3.1994 -10306.1953 10513.7744)" gradientUnits="userSpaceOnUse">
		<stop  offset="0" style="stop-color:#939598"/>
		<stop  offset="1" style="stop-color:#424143"/>
	</radialGradient>
	<polygon class="st5" points="774.23,288.4 785.23,197.55 668.24,183.39 657.24,274.24 	"/>
</g>
<g>
	<defs>
		<path id="SVGID_16_" d="M711.29,286.05c-2.52,5.64,0,12.24,5.64,14.77c1.45,0.65,2.97,0.97,4.47,0.98h0.19
			c4.23-0.04,8.26-2.5,10.1-6.61c2.52-5.63,0-12.25-5.63-14.77c-1.48-0.66-3.03-0.98-4.56-0.98
			C717.23,279.44,713.15,281.91,711.29,286.05"/>
	</defs>
	<clipPath id="SVGID_17_">
		<use xlink:href="#SVGID_16_"  style="overflow:visible;"/>
	</clipPath>
	
		<radialGradient id="SVGID_18_" cx="432.2029" cy="364.0381" r="2.8219" gradientTransform="matrix(3.1995 -26.4278 26.4278 3.1995 -10306.415 10513.9902)" gradientUnits="userSpaceOnUse">
		<stop  offset="0" style="stop-color:#939598"/>
		<stop  offset="1" style="stop-color:#424143"/>
	</radialGradient>
	<polygon class="st6" points="733.84,304.84 736.88,279.76 709.13,276.41 706.1,301.48 	"/>
</g>
<g>
	<defs>
		<path id="SVGID_19_" d="M713.89,236.76c-3.63,3,3.61,12.11,10.72,7.14c25.99-20.66,27.19-45.79,26.98-49.76
			c-0.55-10.39-4.38-20.29-12.15-28.39c-1.15-1.2-2.37-2.31-3.62-3.36C750.94,186.35,738.81,218.09,713.89,236.76"/>
	</defs>
	<clipPath id="SVGID_20_">
		<use xlink:href="#SVGID_19_"  style="overflow:visible;"/>
	</clipPath>
	
		<radialGradient id="SVGID_21_" cx="428.4238" cy="363.758" r="2.8219" gradientTransform="matrix(-18.6966 -6.0758 6.0758 -18.6966 6535.1172 9576.1377)" gradientUnits="userSpaceOnUse">
		<stop  offset="0" style="stop-color:#27A9E1"/>
		<stop  offset="1" style="stop-color:#1E75BC"/>
	</radialGradient>
	<polygon class="st7" points="777.21,170.65 714.23,150.18 684.84,240.61 747.83,261.08 	"/>
</g>
<g>
	<defs>
		<path id="SVGID_22_" d="M657.92,145.75c-6.32,6.06-10.49,13.5-12.51,21.36c14.93-34.69,54.54-33.95,69.05-12.38
			c7.51,11.17,12.99,41.05-18.92,66.6c-4.88,4.05,4.17,14.06,10.44,9.32c22.29-19.66,27.74-41.21,28.03-52.76v-1.93
			c-0.02-0.73-0.06-1.41-0.12-2.03c0-0.01,0-0.02,0-0.03v0c-0.96-9.74-5.07-19.23-12.35-26.83c-8.84-9.22-20.66-13.86-32.49-13.86
			C677.86,133.23,666.64,137.39,657.92,145.75"/>
	</defs>
	<clipPath id="SVGID_23_">
		<use xlink:href="#SVGID_22_"  style="overflow:visible;"/>
	</clipPath>
	
		<radialGradient id="SVGID_24_" cx="428.4237" cy="363.758" r="2.8219" gradientTransform="matrix(-18.6964 -6.0757 6.0757 -18.6964 6535.0659 9576.042)" gradientUnits="userSpaceOnUse">
		<stop  offset="0" style="stop-color:#27A9E1"/>
		<stop  offset="1" style="stop-color:#1E75BC"/>
	</radialGradient>
	<polygon class="st8" points="764.28,142.26 653.88,106.38 615.15,225.57 725.55,261.45 	"/>
</g>
<g>
	<defs>
		<path id="SVGID_25_" d="M742.96,137.54c-0.32,0-0.65,0.01-0.97,0.04c-6.15,0.53-10.71,5.94-10.18,12.09
			c0.52,6.15,5.94,10.71,12.09,10.18c6.15-0.53,10.71-5.94,10.18-12.09C753.57,141.94,748.7,137.54,742.96,137.54L742.96,137.54"/>
	</defs>
	<clipPath id="SVGID_26_">
		<use xlink:href="#SVGID_25_"  style="overflow:visible;"/>
	</clipPath>
	
		<radialGradient id="SVGID_27_" cx="428.4236" cy="363.7581" r="2.8219" gradientTransform="matrix(-18.696 -6.0757 6.0757 -18.696 6534.9414 9575.8721)" gradientUnits="userSpaceOnUse">
		<stop  offset="0" style="stop-color:#27A9E1"/>
		<stop  offset="1" style="stop-color:#1E75BC"/>
	</radialGradient>
	<polygon class="st9" points="761.32,139.72 733.51,130.68 724.57,158.2 752.38,167.24 	"/>
</g>
</svg>
